
<svg version="1.1"
	 xmlns="http://www.w3.org/2000/svg" xmlns:xlink="http://www.w3.org/1999/xlink" xmlns:a="http://ns.adobe.com/AdobeSVGViewerExtensions/3.0/"
	 x="0px" y="0px" viewBox="0 0 407 399.3" style="enable-background:new 0 0 407 399.3;"
	 xml:space="preserve">
<defs>
</defs>
<g>
	<path fill="#fff" d="M350.5,399.3h-294C25.3,399.3,0,374,0,342.8V56.5C0,25.3,25.3,0,56.5,0h294C381.6,0,407,25.3,407,56.5v286.3
		C407,374,381.6,399.3,350.5,399.3z M56.5,45C50.2,45,45,50.2,45,56.5v286.3c0,6.3,5.2,11.5,11.5,11.5h294c6.3,0,11.5-5.2,11.5-11.5
		V56.5c0-6.3-5.2-11.5-11.5-11.5H56.5z"/>
</g>
<g>
	<path fill="#fff" d="M251.3,278.5h-95.6c-18.2,0-33-14.8-33-33v-91.7c0-18.2,14.8-33,33-33h95.6c18.2,0,33,14.8,33,33v91.7
		C284.3,263.8,269.5,278.5,251.3,278.5z"/>
	<path fill="#fff" d="M251.3,279h-95.6c-18.5,0-33.5-15-33.5-33.5v-91.7c0-18.5,15-33.5,33.5-33.5h95.6c18.5,0,33.5,15,33.5,33.5v91.7
		C284.8,264,269.7,279,251.3,279z M155.7,121.3c-17.9,0-32.5,14.6-32.5,32.5v91.7c0,17.9,14.6,32.5,32.5,32.5h95.6
		c17.9,0,32.5-14.6,32.5-32.5v-91.7c0-17.9-14.6-32.5-32.5-32.5H155.7z"/>
</g>
</svg>
